<svg width="19" height="19" viewBox="0 0 19 19" fill="none" xmlns="http://www.w3.org/2000/svg">
<path d="M13.3333 1.5237C13.5521 1.30483 13.812 1.13121 14.0979 1.01276C14.3839 0.89431 14.6904 0.833344 14.9999 0.833344C15.3094 0.833344 15.6159 0.89431 15.9019 1.01276C16.1879 1.13121 16.4477 1.30483 16.6666 1.5237C16.8855 1.74257 17.0591 2.00241 17.1775 2.28837C17.296 2.57434 17.3569 2.88084 17.3569 3.19037C17.3569 3.49989 17.296 3.80639 17.1775 4.09236C17.0591 4.37833 16.8855 4.63816 16.6666 4.85703L5.41659 16.107L0.833252 17.357L2.08325 12.7737L13.3333 1.5237Z" stroke="#FF9500" stroke-width="1.66667" stroke-linecap="round" stroke-linejoin="round"/>
</svg>
