<svg width="12" height="12" viewBox="0 0 12 12" fill="none" xmlns="http://www.w3.org/2000/svg">
<path fill-rule="evenodd" clip-rule="evenodd" d="M4.66667 0C2.08934 0 0 2.08934 0 4.66667C0 7.244 2.08934 9.33333 4.66667 9.33333C5.71489 9.33333 6.68239 8.98773 7.46145 8.40426L10.1953 11.1381C10.4557 11.3985 10.8778 11.3985 11.1381 11.1381C11.3985 10.8778 11.3985 10.4557 11.1381 10.1953L8.40426 7.46145C8.98773 6.68239 9.33333 5.71489 9.33333 4.66667C9.33333 2.08934 7.244 0 4.66667 0ZM1.33333 4.66667C1.33333 2.82572 2.82572 1.33333 4.66667 1.33333C6.50762 1.33333 8 2.82572 8 4.66667C8 6.50762 6.50762 8 4.66667 8C2.82572 8 1.33333 6.50762 1.33333 4.66667Z" fill="#64748B"/>
</svg>
