<svg width="17" height="19" viewBox="0 0 17 19" fill="none" xmlns="http://www.w3.org/2000/svg">
<path d="M0.833252 4.16668H2.49992M2.49992 4.16668H15.8333M2.49992 4.16668V15.8333C2.49992 16.2754 2.67551 16.6993 2.98807 17.0119C3.30063 17.3244 3.72456 17.5 4.16659 17.5H12.4999C12.9419 17.5 13.3659 17.3244 13.6784 17.0119C13.991 16.6993 14.1666 16.2754 14.1666 15.8333V4.16668H2.49992ZM4.99992 4.16668V2.50001C4.99992 2.05798 5.17551 1.63406 5.48807 1.3215C5.80063 1.00894 6.22456 0.833344 6.66659 0.833344H9.99992C10.4419 0.833344 10.8659 1.00894 11.1784 1.3215C11.491 1.63406 11.6666 2.05798 11.6666 2.50001V4.16668M6.66659 8.33334V13.3333M9.99992 8.33334V13.3333" stroke="#FF0101" stroke-width="1.66667" stroke-linecap="round" stroke-linejoin="round"/>
</svg>
