<svg width="14" height="16" viewBox="0 0 14 16" fill="none" xmlns="http://www.w3.org/2000/svg">
<path d="M4.58579 0.585786C4.96086 0.210714 5.46957 0 6 0H9.586C10.1164 0.000113249 10.625 0.210901 11 0.586L13.414 3C13.7891 3.37499 13.9999 3.88361 14 4.414V10C14 10.5304 13.7893 11.0391 13.4142 11.4142C13.0391 11.7893 12.5304 12 12 12H6C5.46957 12 4.96086 11.7893 4.58579 11.4142C4.21071 11.0391 4 10.5304 4 10V2C4 1.46957 4.21071 0.960859 4.58579 0.585786Z" fill="#0E73F6"/>
<path d="M0.585786 4.58579C0.210714 4.96086 0 5.46957 0 6V14C0 14.5304 0.210714 15.0391 0.585786 15.4142C0.960859 15.7893 1.46957 16 2 16H8C8.53043 16 9.03914 15.7893 9.41421 15.4142C9.78929 15.0391 10 14.5304 10 14H2V4C1.46957 4 0.960859 4.21071 0.585786 4.58579Z" fill="#0E73F6"/>
</svg>
